<?xml version="1.0" encoding="utf-8"?>
<!-- Generator: Adobe Illustrator 23.0.5, SVG Export Plug-In . SVG Version: 6.00 Build 0)  -->
<svg version="1.1" xmlns="http://www.w3.org/2000/svg" xmlns:xlink="http://www.w3.org/1999/xlink" x="0px" y="0px"
	 viewBox="0 0 517.1 684.5" style="enable-background:new 0 0 517.1 684.5;" xml:space="preserve">
<g id="Layer_1">
	<title>logo</title>
	<path d="M499.3,388.3c-0.3,0.2-0.5,0.4-0.8,0.6c-6.8,2.3-9.5,7.4-9.7,14.2c-0.1,2.3-0.1,4.5,0.1,6.8c1.1,10.6-1.2,20.5-5.3,30.1
		c-2.6,5.9-4.9,11.9-6.8,18c-0.9,3.2-0.8,6.7,0.1,9.9c1.5,4.4-0.4,6.8-3.1,9.1c-2.6-0.6-5-1.6-7.5-1.6c-1.7,0-4.1,0.8-4.9,2
		c-0.7,1,0.1,3.5,0.9,4.9c1.6,2.4,3.3,4.8,5.1,7c2.1,2.7,2.5,5.5,0.7,8.6c-1.8,3.3-3.6,6.7-5.3,9.8c-2.8-0.3-5.7-0.5-8.5-0.5
		c-3.2,0.1-3.9,1.1-3.8,4.3c0.1,1.1,0.1,2.2,0.1,3.3c-0.4,4.4,0.8,8,4.8,10.5c0.3,0.2,0.5,0.4,0.7,0.7c-3.1,5.6-6,11-9.1,16.7
		c-6.2-3.6-11.9-1.3-16.8,4c-2.3,2.4-4.6,4.9-6.7,7.5c-2.1,2.4-3,5.7-2.5,8.9c0.4,2.7-0.6,5.3-2.6,7.1c-1.9,1.8-3.6,3.8-5.3,5.8
		c-1.3,1.5-1.3,2.8,0.5,4.3c4.9,4,4.9,9.5,4.7,15c-7.7,2.1-15.8,1.5-23.5,5.2c1.5,1.7,2.7,3,3.8,4.3c2.2,2.5,4.5,4.9,6.6,7.6
		c1.4,1.8,0.6,3.2-1.5,3.4c-2.9,0.4-5.8,0.6-8.7,0.5c-5.5-0.1-11-0.5-16.5-0.8c-3.8-0.2-4.4,0.1-5.1,3.9c-0.4,2.5-0.7,5-0.8,7.5
		c-0.1,2.7-1.4,5.2-3.7,6.6c-2.9,2.1-5.9,4.2-9.4,6.6l13.5,2.9l0.2,0.8c-1.2,1.3-2.5,2.4-3.9,3.5c-7.4,5.1-14.9,10-22.3,15
		c-5.5,3.7-11.8,4.7-18.1,6.2c-4.4,1.1-8.6,3-12.9,4.7c-1.3,0.6-2.6,1.3-3.8,2.1c-8.8,5.5-18.2,6.4-28.2,3.8
		c-5.8-1.6-11.6-2.8-17.5-3.6c-3.1-0.4-6.3,0-9.3,1.2c-17.5,7.5-35.8,8-54.4,7.7c-26-0.4-49.8-8.3-72.6-20
		c-16.1-8.3-32.1-16.6-44.8-29.7c-18.5-19-36.3-38.7-51.3-60.8c-1.4-2.1-2.6-4.4-3.6-6.7c-1.7-3.7-1.8-7.9-0.1-11.6
		c0.5-1.4,1.2-2.8,1.9-4.2c2.3-3.9,1.5-7.3-1-10.8C18,521.7,8.2,501.2,2.9,478.7c-1-4.2-0.8-7.8,1.7-11.6c3.4-4.9,5.2-10.7,5.1-16.6
		c-0.1-5.7-2.3-10.2-7.5-12.9c-2.1-1.1-2.6-2.5-1.9-4.6c1.3-3.9,2.4-7.8,3.8-11.6c0.6-0.9,1.5-1.5,2.5-1.6c1.9,0,3.8,0,5.7,0.2
		c2.1,0,4-0.4,5-2.6c1.1-2.1,0.6-4.7-1.2-6.3c-1.8-1.5-3.8-2.7-6-3.4c-6.8-2.4-7.9-3.5-5.8-10.5c3.5-11.9,4.9-24.3,4.4-36.8
		c-0.1-4.1,0.8-8.1,2.7-11.8c1.6-3.1,2.4-6.3-0.9-9.1c-0.6-0.5-0.4-2.4-0.1-3.5c3.2-12.7,6.3-25.5,9.8-38.1
		c2.3-8.3,5.3-16.3,7.9-24.5c0.6-1.8,1.5-2.4,3.5-2.5c3.3-0.2,6.6-0.8,9.8-1.7c3.6-1,4.4-3.7,1.9-6.6c-2.4-2.9-4.9-5.6-7.6-8.1
		c-1.6-1.5-1.9-2.9-1-4.7c5.5-11.9,10.6-24,16.6-35.7c4.2-8.3,9.7-15.9,14.5-23.9c1-1.6,2.1-2.1,3.8-1.2c0.4,0.2,0.9,0.3,1.3,0.4
		c6.1,1.4,8.6,0,10.4-6c1.6-5.4,2-10.7-1.2-15.7c-0.3-0.7-0.2-1.5,0.1-2.1c10.1-16.2,20-32.6,30.4-48.6c7.1-11,16.5-20,27-27.7
		c13.6-9.9,27.6-19.4,41.4-28.9c2.5-1.6,5.1-3,7.9-4.2c5.2-2.3,9.8-0.9,13.8,2.7c2.2,1.9,2.8,4.4,1.2,6.8c-1.4,2.3-3.3,4.3-5.4,5.9
		c-5.9,4.2-12.2,7.8-18.2,11.9c-5.3,3.6-10.5,7.3-15.9,10.9c-6.8,4.6-13.8,9.1-20.6,13.6c-1.8,1.1-3.5,2.5-5,4
		c-2.2,2.5-1.6,4.1,1.4,5.3c0.8,0.3,1.7,0.6,2.6,0.9c4.3,1.3,5.7,3.7,3.7,7.8c-1.6,3.3-3.6,6.7-6.4,9c-6.3,5.4-12.9,10.3-20,14.7
		c-8.8,5.2-16.3,12.4-21.7,21.1c-27.1,42.4-47,89-58.9,137.9c-6.2,25.5-10.6,51.3-11.5,77.5c-0.8,23.2,2.6,46,8.2,68.6
		c3.4,13.8,6.7,27.6,9.8,41.4c2.1,9.5,3.4,19.2,5.6,28.7c1.8,7.7,5.8,14.4,11,20.4c8.6,9.8,17.2,19.6,26,29.2
		c14,15.3,31.1,25.6,51.4,30.2c3,0.6,6.1,0.9,9.1,0.9c1.1-0.1,2.2-0.7,2.8-1.7c0.3-0.6-0.3-2.2-1-2.8c-1.6-1.6-3.5-2.9-5.5-3.8
		c-7.7-3-15.3-6-23.1-8.6c-12.1-3.9-22.6-11.6-30-21.8c-6.5-8.9-13.1-17.8-19.7-26.7c-7-9.5-10.1-20.5-12.2-31.9
		c-2.1-12.5-5.9-24.6-11.3-36.1c-9.4-19.6-12.8-40.8-12.8-62.5c0-18.3,2.6-36.3,6.1-54.2c3.8-19.5,7.3-39.2,12.1-58.4
		c8.9-36.1,24-70.4,44.7-101.3c16.6-24.6,37.3-45.3,63.2-60.2c11.6-6.7,24.2-11,37-14.7c16.5-4.8,33-9.7,49.7-13.8
		c28.5-7.1,56.6-4.4,84.5,3.7c46,13.3,84.3,38.4,114.8,75.1c13.1,15.7,22,34,29.5,52.9c10.7,26.7,16.3,55.2,16.6,84
		c0,1.8,0.3,2.9,2.4,3.1c1.3,0.1,1.8,0.8,1.4,2.5s0.2,3.4,0.7,5c0.6,1.8,0.4,3.3-1.4,4.1c-4.5,2.1-5.8,5.7-5.5,10.3
		c0.1,2.5-0.1,5.1-0.5,7.6c-0.3,2.1,0.7,3.2,2.6,3.4c1.8,0.1,3.6-0.1,5.3-0.5c2.1-0.5,4.1,0.7,4.6,2.8c0.1,0.6,0.1,1.2,0,1.8
		c-0.8,3.5-2.3,4.4-5.8,3.9c-3.9-0.6-5.4,0.7-5.4,4.6c0,5,2.3,9.2,5.1,13.2C497.4,385.7,498.3,387,499.3,388.3z M442.2,360.4
		c-0.9-13.6-1.4-27.3-2.9-40.9c-1.6-14.7-4-29.2-6.1-43.8c-2.1-14.4-6.3-28.1-14.6-40.2c-20-29.2-46-50.9-79.3-63.5
		c-26.6-10.1-54-13.5-82.2-8.7c-26.2,4.4-50.9,13.2-74.9,24.4c-18.2,8.5-32.8,21.1-44.4,37.3c-9.9,13.8-18,28.6-25.5,43.9
		c-6,12.2-11.5,24.6-14.9,37.8c-1.8,6.8-1.3,12.9,4.4,18.2c2.3,2.3,4,5.1,5.1,8.2c1.7,5,3,10,3.8,15.2c2.9,16.8,5.2,33.6,8.3,50.4
		c2.1,11.7,5.3,23.1,11.5,33.4c19.5,32.5,43.2,62.3,70.5,88.6c8.7,8.4,17.7,16.5,28.5,22c22.8,11.6,46.3,12.5,70.3,4.2
		c3.6-1.4,7.4-2.1,11.3-2.2c8.2,0.4,16.1-2.6,22.1-8.2c10.9-10.1,21.2-21,28.6-34c4.9-8.5,9-17.5,13.4-26.4
		c14.3-28.4,21.2-59.8,20.3-91.6c-0.8-25.7-5.2-51.2-12.8-75.8c-8.3-27.2-25.6-46.3-51.3-57.8c-20.6-9.3-43.4-12.7-65.8-10
		c-16.5,1.9-32.5,5.7-47,14c-18.8,10.8-33.8,25.7-45.8,43.7c-5.5,8.1-10.2,16.6-11.6,26.7c-1.2,8.6-2.1,17.3-4.5,25.6
		c-5.6,19.4-3.9,38,4.1,56.4c10.5,24.2,25.3,45.5,43,64.9c11.9,13,25.3,24.2,41.3,31.7c19.5,9.2,39.8,12.5,61.1,8.3
		c5.8-1.1,11.5-3,17.3-4.4c2.9-0.7,6.1-1.5,8.2,1.5c1.5,2.1,0.2,5-3.3,8.1c-0.8,0.8-1.6,1.5-2.5,2c-4.2,2.3-8.3,4.8-12.7,6.7
		c-6.9,3-14,5.5-21,8.1c-2.3,0.9-4.6,1.5-7,1.9c-10.6,1.7-21.1,0.8-31.7-0.5c-11.4-1.3-21.5-5.4-30-13.2c-2.4-2.2-4.8-4.4-7-6.8
		c-15.9-17.4-31.8-34.8-47.6-52.2c-9.7-10.6-18.1-22.2-24-35.4c-11.3-25.2-15.7-51.7-14.5-79.1c0.7-18.8,6.7-37.1,17.2-52.8
		c10.3-15.4,22.1-29.7,35.3-42.6c8.1-8,16.8-15.1,26.9-20.6c36.2-19.7,74.3-23.4,113.9-13.4c21.6,5.4,40,16.1,53.3,34.6
		c7.1,10,13.3,20.7,18.5,31.9c4.8,10.2,10,20.1,19.2,27.2c3.9,3,5.7,7.5,6.3,12.3c0.9,8,1.8,16,2.2,24.1c0.6,16.8-0.3,33.5-2.6,50.2
		c-3.2,24.7-9.3,48.5-19.6,71.2c-5.3,11.7-10.1,23.6-14.8,35.5c-1.2,3-1.3,6.5-1.5,9.8c-0.2,2.3,1.5,3.7,3.5,4.7s3.4,0.2,4.7-1
		c1.9-1.8,3.7-3.7,5.4-5.7c8.3-10.8,14.7-22.8,20.1-35.3C434.7,441.2,441.5,401.5,442.2,360.4L442.2,360.4z M473.6,345
		c-0.6-34.5-4.9-63-12.5-91c-5.2-19.3-12.8-37.5-26-52.9c-20.4-23.6-45.3-42.8-73.4-56.3c-35.7-17.6-73.2-23.2-112.3-16.3
		c-30.2,5.4-59.3,15.4-86.4,29.7c-20.1,10.6-36.4,25.6-49.4,44.2C90.2,236,75.8,273.5,68.5,313.7c-2.8,15.6-5.5,31.1-10.1,46.4
		c-3.6,11.9-5.1,24.3-4.5,36.8c0.9,19.9,5.4,39.1,11.9,57.8c1.9,5.6,2.3,10.2-2,14.7c-2,2.1-1.7,4.2,0.2,6.5
		c10.9,13.2,19.7,28.1,26.1,44c2.3,5.8,4.5,11.6,7.1,17.3c4,9,8.6,17.8,15.4,25.1c4.2,4.5,9.1,8.1,15.1,9.7c0.9,0.2,2.5,0.2,2.9-0.3
		c0.5-1,0.6-2.2,0.2-3.2c-0.5-1.4-1.3-2.8-2.3-4c-3.3-4.5-6.7-9-10.2-13.4c-9.2-11.9-15.9-24.7-15.2-40.3c0.3-6.6-2.4-12.1-6.4-17.4
		c-4.6-6.1-9.2-12.5-12.4-19.4c-11.3-24.3-16-50.3-17.7-76.8c-1-15.4,1.5-30.7,3.7-46c4.1-29.9,11.8-59.2,22.8-87.3
		c10.2-25.8,24.3-49.2,44.8-68.2c18.6-17.2,39.9-30.2,63-40.4c19.9-8.8,40.4-14.8,62.2-16.2c32-2.2,64,4.4,92.5,19
		c35.7,18,64.8,43,83.6,79.1c13,25,20.8,51.2,21.5,79.4c0.4,17.8-0.4,35.7-2.4,53.4c-1.4,11.9-2.2,24-6.5,35.4
		c-1.8,4.6-0.5,7.1,3.5,9.9c1.8,1.1,3.7,1.9,5.7,2.3c4.3,1,5.8-0.2,6.2-4.6c0.8-8.2,1.7-16.4,2.4-24.6
		C471.4,372.1,472.7,355.8,473.6,345L473.6,345z M284,603.1c-2,4.7-6.3,8-11.4,8.7c-4.2,0.7-8.4,1.1-12.7,1.5
		c-7.3,0.7-14.5,2-21.9,0.4c-19.1-4.2-36.5-12-50.8-25.6c-19.1-18.3-37.9-36.9-54.3-57.8c-1-1.4-2.2-2.6-3.6-3.7
		c-1.2-0.9-2.6-1.6-4.1-2c-2-0.7-4.1,0.4-4.7,2.4c-0.2,0.5-0.2,1-0.2,1.5c0,1.8,0.3,3.6,0.9,5.3c2.4,6.8,7.1,12,12.2,16.8
		s10.2,9.3,15,14.2c11.6,11.7,23,23.7,34.5,35.4c8.4,8.5,17.8,15.7,29.3,19.2c8,2.3,16.1,4.1,24.3,5.3c15,2.4,30.1,2.8,45.2-0.2
		c13.5-2.7,26.7-7,40.5-8.7c12.3-1.5,22.9-8,32.4-15.7c10-8.1,19.4-16.9,28.8-25.7c6.8-6.4,13.6-12.8,19.5-20
		c11.4-14,18.1-30.6,25-47.1c0.4-0.7,0.6-1.5,0.6-2.3c-0.3-1.7-0.3-3.8-1.4-4.8c-1.6-1.5-3.8-0.5-5,1c-2.8,3.1-5.3,6.4-7.5,9.9
		c-3.5,6-6.7,12.3-9.8,18.5c-5.5,10.8-12.3,20.4-21.4,28.5c-8.5,7.5-16.8,15.2-24.7,23.3c-11.7,11.9-25.9,18.9-41.6,23.4
		c-3.4,1.1-7.1,0.8-10.3-0.7c-6.4-3-7.2-7.4-2.1-12.2c1.7-1.6,3.6-3.1,5.6-4.3c4.3-2.7,8.7-5.3,13.1-7.7
		c15.8-8.4,29.2-19.7,41.7-32.4c2.7-2.5,3.9-6.3,3-9.9c-1-4.8-3.8-6.4-8-3.9c-2.8,1.7-5.2,4.2-7.7,6.3c-4.2,3.6-7.8,8-12.5,10.8
		c-11.8,7-23.7,14.2-36.3,19.5c-28.1,11.9-55.8,10.3-82.2-5.7c-23.1-13.9-43-31.6-60.5-52.1c-16-18.8-30.2-38.9-44.5-59
		c-8.8-12.4-15.4-25.9-17.8-41c-2-12.9-2.7-25.9-4.1-38.9c-0.5-4.6-1.1-9.1-2-13.7c-0.3-1.3-1.6-3.1-2.7-3.2s-3.1,1-3.7,2.1
		c-1.8,3.4-3.7,6.9-4.6,10.6c-2.6,10.8-1.1,21.6,1.4,32.3c6.4,27.9,18.7,53.2,34.6,76.8c15.2,22.6,32.7,43.4,51.2,63.4
		c11.5,12.7,24.6,23.9,38.9,33.3c19.5,12.6,40.3,21.6,63.4,25C275.2,600.8,279.4,602.1,284,603.1z M165.6,641.7
		c11.1,0.2,18.3-1.6,25.1-5c1.6-0.8,2.2-1.7,1.2-3.1c-2.4-3.5-5-6.7-7.9-9.8c-2.5-2.5-4.4-2.2-7.3-0.2s-5.4,4-8.2,5.8
		c-1.2,0.8-2.6,1.2-4,1.1c-7-0.8-14-1.8-20.9-3c-9.3-1.6-17.4-6.4-25.5-11c-3.3-1.8-6.7-3.5-10.2-5c-2.3-1-4.9-1-6.3,1.3
		s0.7,3.9,2.1,5.3c4.1,4.2,9.1,7.5,14.6,9.7c6.5,2.7,13.1,5.3,19.6,8C146.7,639.2,156.1,641.3,165.6,641.7z M259.7,644.3l-0.1,0.7
		c-9.7-0.5-18.4,3.4-27.3,6.3c-0.9,0.3-2.4,1.3-2.3,1.8c0.2,1.2,0.9,2.3,1.8,3.1c2.5,2,5.4,1.8,8.3,1.2c9.8-2.2,20-2.6,30-1.3
		c3.3,0.4,6.7,0.6,10,0.5c2.7-0.1,3.7-1.8,1.9-3.7c-2-2.2-4.5-4.5-7.2-5.4C269.9,645.8,264.7,645.2,259.7,644.3z M462.5,430.4
		c-0.3-0.4-0.8-1.2-1.4-1.6c-2.2-1.1-4.4-2.2-6.7-3c-3.4-1.2-4.3-0.4-4.8,3.2c-1.3,9.9-2.7,19.9-4.2,29.8c-0.5,3.1,0.8,4.4,3.9,3.8
		c3.8-0.7,5.9-3.3,7.5-6.5C460.4,448.2,461.4,439.5,462.5,430.4L462.5,430.4z M343.7,632c-1.6,0.6-3.1,1.2-4.7,2
		c-2.9,1.8-5.7,3.8-8.6,5.7c-1.1,0.8-2.6,1.5-3.1,2.6c-0.6,1.4-0.7,3-0.2,4.4c0.4,0.8,2.5,1.5,3.6,1.2c5.7-1.5,11-4.3,15.4-8.2
		c1.2-1,2.4-3.5,1.9-4.5C347.4,633.7,345.2,633,343.7,632z"/>
	<path d="M511.3,319c-5.4-1.8-9.9-8.5-10.1-14.2c-0.4-10-0.5-19.9-1.5-29.8c-2.3-22.7-9.6-43.9-19.2-64.4
		c-18.2-38.8-47-66.9-84.8-86.4c-20.2-10.4-40.7-20.2-62.3-27.5c-20-6.7-40.4-9.9-61.5-7.9c-14.8,1.4-29.1,5-43.1,9.6
		c-19.2,6.3-38.2,12.9-57.3,19.4c-1.5,0.5-3.1,1-4.7,1.3c-3.1,0.6-4.7-0.6-5-3.8c-0.4-4.6,1.5-8.5,4.3-11.9c4.2-5.2,10-8,16.2-10.1
		c6.5-2.2,13.2-4,19.7-6.2c10.8-3.7,21.6-7.3,32.2-11.6c18.2-7.4,37-10.3,56.6-9.6c27.8,1,54,8.5,79.5,19
		c30.9,12.7,57.5,31.4,79.4,56.6c7.3,8.4,13.1,18,19.6,27c0.6,1.1,1.4,2.1,2.3,3c0.9,0.8,2.5,1.7,3.2,1.4c1.1-0.7,1.8-1.8,2-3.1
		c0.1-2,0-4-0.6-5.9c-4.8-18.8-13.9-34.6-30.5-45.6c-12.4-8.3-23.9-17.9-36.4-26.1c-28.8-18.8-59.9-31.7-94-37.3
		c-25.4-4.1-50.7-3.8-75.7,3.2c-5.7,1.5-11.5,2.6-17.3,3.4c-2.5,0.4-5.6,1.2-7.3-1.5s-0.8-5.8,0.6-8.5c1.7-3.3,4.8-4.5,8-5.5
		c11.2-3.4,22.3-6.9,33.5-10.3c14.3-4.4,29.4-6,44.3-4.7c14,1.3,27.8,4.1,41.1,8.5c24.3,7.5,47.7,17.7,69.7,30.5
		c13.5,7.9,25.8,18,36.2,29.7c1.2,1.6,2.7,3,4.3,4.1c1.1,0.7,3.1,1.1,4.1,0.6c1.2-0.8,2-2.2,2-3.7c-0.2-2.1-0.8-4.2-1.9-6.1
		c-4.6-8.3-11.4-14.7-18.6-20.7c-19-15.8-40.5-27.2-63.7-35.5c-18.2-6.5-36.5-13-55.5-17.1c-14.3-3.1-29-3.5-43.4-1
		c-17.7,3-35.3,5.8-52.5,11.1c-16.8,5.2-33.6,10-50.5,14.8c-3.9,1.1-7.9,1.8-12,2.1c-3.9,0.4-5.6-1.8-4.5-5.6
		c1.7-5.9,5.5-10.1,10.7-13.1c18.1-10.4,37-19,57.8-22.7c10.7-1.9,21.2-4.6,31.9-6.4c3.6-0.5,7.2-0.2,10.7,1
		c8.7,3.2,18.3,3.2,27-0.2c2.4-0.9,5.3-0.9,8-0.8c3.4,0.1,6.8,0.5,10.3,0.9c2.9,0.1,5.5,1.8,6.8,4.3c1.2,2.2,2.7,2.1,4.3,0.6
		l0.6-0.5c5-4.4,6.4-4.6,12.2-1.4c4,2.2,7.3,5.4,9.8,9.2c2,3,4,6.1,6.3,8.9c3,3.7,6.3,4,10.3,1.3c2.5-1.7,4.9-3.5,7.3-5.1
		c2.6-1.7,5.8-2.3,8.8-1.7c5.4,0.8,10.5,2.8,15.1,5.8c12.3,8.3,24.6,16.6,36.9,25c20.8,14.2,36.6,32.7,48.8,54.6
		c2.5,4.5,5.4,8.8,7.8,13.4c1.5,3,2.6,6.1,3.5,9.4c0.9,2.7,0.3,5.7-1.4,8c-2.3,3.2-2.1,5.5,0.2,8.7c1.9,2.7,3.8,5.3,5.7,7.9
		c-6,4-6.6,8-1.9,13.3c2.6,3,5.8,5.4,8.6,8.3c1.7,1.6,3.1,3.5,4.4,5.5c1.4,2.6,0.5,3.9-2.4,3.8c-4.1-0.1-7.3,3.6-6.6,8.1
		c0.4,2.9,1.6,5.6,2.1,8.4c0.7,3.7,1.1,7.4,1.2,11.1c0,2.8,0.4,5.3,2.8,7c3.1,2.3,5.2,5.6,6,9.4c1.5,6.3,2.8,12.5,4.1,18.8
		c0.8,3.7-0.6,6.6-3.4,8.9c-1.7,1.4-3.6,2.7-5.3,4.3c-3.5,3.3-3.2,5.9,0.9,7.6c8.8,3.7,12.3,9,10.5,22.6c-1.2,9-3.2,18-4.8,27
		C511.5,315.2,511.5,317,511.3,319z"/>
	<path d="M31.9,206.4c0.9-3.5,1.6-6.9,2.7-10.1c13.3-37.9,34.1-72.6,61.3-102.2c4.2-4.6,8.9-8.6,15-10.9c2.9-1.1,5.3-3.7,7.5-6.1
		c2.8-3.2,5.1-6.8,7.7-10.2c4.9-6.3,11.3-11.1,18.7-14c1.2-0.5,2.4-0.9,3.6-1.1c1-0.1,2,0,3.1,0.2c-0.1,1-0.3,2-0.7,3
		c-4.3,7.5-10.2,13.8-16.4,19.8s-12.9,11.9-19.2,18c-11,10.6-19.4,23.2-27.8,35.7c-15.1,22.5-29,45.7-42.4,69.2
		c-1.8,2.8-3.7,5.6-5.8,8.1c-0.8,1-1.8,1.8-2.9,2.4c-0.8,0.5-2.2,1-2.9,0.7S32.3,207.4,31.9,206.4z"/>
	<path d="M379.5,384.4c-0.6,20.3-3.1,43.8-11.5,66.2c-4.1,11-9.7,21-18.1,29.3c-5,4.9-11.1,8.6-17.7,10.8
		c-12.8,4.2-25.8,7.3-39.3,7.5c-24.9,0.4-47.1-7.2-66.1-23.4c-15.6-13.3-29.5-28.2-40.5-45.5c-10-15.9-15.4-34.2-15.4-53
		c-0.2-12.1,2.3-24.1,7.4-35c3.6-8.2,10.2-14.7,18.4-18.4c15.3-6.9,30.3-14.5,45.7-21.5c24.1-11,54.1-5.1,72.1,14.1
		c7.6,8.1,12.3,17.9,15.8,28.2c5.7,17,9.7,34.5,10.4,52.5c0.6,11.1-1.3,22.1-5.4,32.4c-6.9,16.6-19.7,25.5-37,28.3
		c-23.8,3.7-43.9-4.4-61-20.5c-10.1-9.6-18.5-20.8-24.7-33.2c-6-11.6-7.6-23.7-4.1-36.3c3-10.8,9.5-18.8,20-23.2
		c11.7-5,24.5-6.6,37-4.8c11.5,1.7,19.4,8.1,23.6,18.8c4.8,12.1,6.1,24.4,0.8,36.7c-2.2,5.1-6,9.4-10.8,12.2c-3,1.8-5.9,2-8.9,0.1
		c-2-1.3-4-2.5-6-3.7c-9.2-5.5-12.3-14.3-13.3-24.2c-0.3-3.7,1.6-6.2,5-7.5c3.7-1.4,6.4-0.7,8.9,2.5c1.7,2.2,3.1,4.7,4.9,6.9
		c0.8,0.9,2.2,1.3,3.3,1.9c0.5-1.1,1.2-2.2,1.3-3.4c0.3-5.3-1-10.5-3.7-15.1c-2.9-5.2-7.3-7.9-13.3-7.7c-5.3,0.2-10.3,1.1-14.6,4.3
		c-6,4.6-7,11.3-6.7,18.3c0.4,8.1,3.5,15.5,6.4,22.9c0.4,1,0.9,2,1.3,3c1.2,3.9,4.3,6.8,8.3,7.8c2.5,0.7,4.8,2.5,7.1,3.9
		c5.9,3.4,11.5,7.3,17.6,10.1c7.3,3.4,13,1.9,17.7-4.6c3.5-4.7,6.3-9.9,8.3-15.4c6-16.1,7.1-33.5,3.3-50.3
		c-3.8-17.1-14.7-27.3-31.3-32c-18.4-5.2-35.8-1.8-52.8,5.8c-17.4,7.7-25.8,21.6-28.1,39.9c-1.7,13.8,2.3,26.6,8.1,38.8
		c9.6,20,22.7,37.2,41.7,49c20,12.4,41.9,17.4,65.3,13.9c17.4-2.6,29.2-13.1,37-28.4c7.5-14.6,10.1-30.3,9.6-46.6
		c-0.8-25.7-5.8-51-14.6-75.1c-6.3-17.2-19.4-28.3-35.8-35.2c-27.7-11.8-54.2-8.3-79.7,7.1c-10.1,6.1-20.4,12.1-30.7,17.8
		c-2.8,1.4-5.7,2.4-8.7,3c-3.6,0.9-5.3-0.7-5.1-4.5s2.3-6.7,5-9.1c8.1-7.2,16.2-14.5,24.7-21.2c6.2-4.9,12.8-9.1,19.8-12.8
		c11.2-5.9,23.6-8,35.8-10.3c30.4-5.6,56.2,4.2,78.9,23.8c2.1,1.8,4,3.9,6.2,5.7c7.5,6.1,12.2,14.1,15.5,23.1
		C374.9,332.3,379.5,356.2,379.5,384.4z"/>
	<path d="M422.9,283.4c0.2,3-0.2,5.8-2.6,8c-1.6,1.5-3.3,1.8-4.7,0.1c-2-2.2-3.9-4.6-5.4-7.1c-3.1-5.6-5.8-11.4-8.3-17.4
		c-10.4-26.2-29.3-43.8-55.2-54.1c-21.6-8.6-44.1-14.3-67.5-13.4c-34.4,1.1-67.5,13.5-94,35.4c-12,9.8-22,21.5-32,33.2
		c-9.8,11.2-18.6,23.2-26.3,35.9c-2.1,3.3-4.6,6.5-7.4,9.3c-1.7,1.8-4,3.1-6.6,1.7s-5-3.4-4.8-6.6c0.1-3.3,0.6-6.6,1.6-9.8
		c3.4-10.6,9.3-20,15.4-29.2c9.6-14.6,19.5-29,31-42.3c14.5-17,33.4-29.5,54.7-36.2c26.7-8.5,53.8-14.5,81.9-13.1
		c43.9,2.1,81.2,18.9,109.9,53C415.3,245.8,421.8,263.6,422.9,283.4z"/>
	
		<image style="overflow:visible;" width="237" height="84" xlink:href="34430DEB.jpg"  transform="matrix(0.6531 0 0 0.6531 -3635.5044 1254.274)">
	</image>
	
		<image style="overflow:visible;" width="164" height="83" xlink:href="34430DE9.jpg"  transform="matrix(0.8956 0 0 0.8956 -3631.5457 1305.8177)">
	</image>
	
		<image style="overflow:visible;" width="134" height="76" xlink:href="34430DEF.jpg"  transform="matrix(1.0807 0 0 1.0807 -3636.7163 1176.1071)">
	</image>
	
		<image style="overflow:visible;" width="369" height="176" xlink:href="34430DE8.jpg"  transform="matrix(0.3977 0 0 0.3977 -3637.6912 786.8898)">
	</image>
	
		<image style="overflow:visible;" width="181" height="93" xlink:href="34430DE6.jpg"  transform="matrix(0.7684 0 0 0.7684 -3635.5044 1065.0414)">
	</image>
	
		<image style="overflow:visible;" width="199" height="70" xlink:href="34430DE7.jpg"  transform="matrix(0.7337 0 0 0.7337 -3636.9736 1016.0217)">
	</image>
	
		<image style="overflow:visible;" width="182" height="67" xlink:href="34430DF7.jpg"  transform="matrix(0.7574 0 0 0.7574 -3632.8987 1136.0792)">
	</image>
	
		<image style="overflow:visible;" width="199" height="56" xlink:href="34430DF9.jpg"  transform="matrix(0.7454 0 0 0.7454 -3638.4792 977.2203)">
	</image>
	
		<image style="overflow:visible;" width="219" height="106" xlink:href="34430DFB.jpg"  transform="matrix(0.6773 0 0 0.7005 -3638.4792 856.8898)">
	</image>
	
		<image style="overflow:visible;" width="113" height="77" xlink:href="8DB10308.jpg"  transform="matrix(1.2861 0 0 1.2861 -3321.6895 737.3759)">
	</image>
	
		<image style="overflow:visible;" width="200" height="64" xlink:href="8DB1030F.jpg"  transform="matrix(0.7266 0 0 0.7266 -3636.9736 931.1424)">
	</image>
</g>
<g id="Layer_2">
</g>
<g id="Layer_3">
</g>
<g id="Layer_4">
</g>
<g id="Layer_5">
</g>
<g id="Layer_6">
</g>
<g id="Layer_7">
</g>
<g id="Layer_8">
</g>
<g id="Layer_9">
</g>
<g id="Layer_10">
</g>
</svg>
